<svg xmlns="http://www.w3.org/2000/svg" xmlns:xlink="http://www.w3.org/1999/xlink" width="500" zoomAndPan="magnify" viewBox="0 0 375 374.999991" height="500" preserveAspectRatio="xMidYMid meet" version="1.2"><defs><clipPath id="15003277aa"><path d="M 10.066406 7 L 364.816406 7 L 364.816406 367 L 10.066406 367 Z M 10.066406 7 "/></clipPath></defs><g id="93e07dc568"><g clip-rule="nonzero" clip-path="url(#15003277aa)"><path style=" stroke:none;fill-rule:nonzero;fill:#8f90de;fill-opacity:1;" d="M 146.113281 145.703125 L 146.113281 52.246094 C 146.113281 39.171875 149.691406 28.550781 156.839844 20.378906 C 163.988281 12.003906 174.203125 7.816406 187.480469 7.816406 C 200.761719 7.816406 210.972656 12.003906 218.125 20.378906 C 225.476562 28.550781 229.15625 39.171875 229.15625 52.246094 L 229.15625 145.703125 L 321.390625 145.703125 C 334.875 145.703125 345.496094 149.382812 353.257812 156.734375 C 361.226562 163.886719 365.210938 173.996094 365.210938 187.070312 C 365.210938 200.351562 361.226562 210.667969 353.257812 218.019531 C 345.496094 225.375 334.875 229.050781 321.390625 229.050781 L 229.15625 229.050781 L 229.15625 322.203125 C 229.15625 335.480469 225.480469 346.207031 218.125 354.378906 C 210.769531 362.546875 200.554688 366.632812 187.480469 366.632812 C 174.40625 366.632812 164.195312 362.550781 156.839844 354.378906 C 149.691406 346.207031 146.113281 335.480469 146.113281 322.203125 L 146.113281 229.050781 L 53.878906 229.050781 C 40.804688 229.050781 30.183594 225.066406 22.011719 217.101562 C 14.042969 208.929688 10.058594 198.917969 10.058594 187.070312 C 10.058594 173.996094 13.941406 163.886719 21.703125 156.734375 C 29.671875 149.382812 40.394531 145.703125 53.878906 145.703125 Z M 146.113281 145.703125 "/></g></g></svg>