<svg xmlns="http://www.w3.org/2000/svg" xmlns:xlink="http://www.w3.org/1999/xlink" width="500" zoomAndPan="magnify" viewBox="0 0 375 374.999991" height="500" preserveAspectRatio="xMidYMid meet" version="1.0"><defs><clipPath id="44a304e7fd"><path d="M 16.703125 0 L 357.953125 0 L 357.953125 342 L 16.703125 342 Z M 16.703125 0 " clip-rule="nonzero"/></clipPath></defs><g clip-path="url(#44a304e7fd)"><path fill="#a18ef2" d="M 16.792969 170.808594 C 16.792969 265.121094 93.242188 341.566406 187.550781 341.566406 C 281.859375 341.566406 358.304688 265.121094 358.304688 170.808594 C 358.304688 76.5 281.859375 0.0546875 187.550781 0.0546875 C 93.242188 0.0507812 16.792969 76.5 16.792969 170.808594 " fill-opacity="1" fill-rule="nonzero"/></g><path fill="#23255d" d="M 262.542969 126.253906 L 262.542969 290.128906 L 117.316406 290.128906 L 117.316406 133.015625 L 262.542969 126.253906 " fill-opacity="1" fill-rule="nonzero"/><path fill="#23255d" d="M 259.097656 157.066406 C 259.097656 157.066406 254.410156 197.296875 280.503906 196.753906 C 280.503906 196.753906 269.109375 210.886719 258.769531 204.90625 C 248.429688 198.925781 253.441406 163.589844 253.441406 163.589844 L 259.304688 154.347656 " fill-opacity="1" fill-rule="nonzero"/><path fill="#8582e4" d="M 287.167969 342.035156 C 278.730469 348.339844 269.664062 353.863281 260.085938 358.484375 C 258.628906 359.191406 257.160156 359.863281 255.691406 360.527344 C 234.882812 369.855469 211.832031 375.042969 187.554688 375.042969 C 163.273438 375.042969 140.226562 369.855469 119.425781 360.527344 C 117.9375 359.863281 116.46875 359.191406 115.023438 358.484375 C 105.441406 353.851562 96.375 348.339844 87.9375 342.035156 C 89.417969 309.023438 106.953125 280.191406 132.929688 263.164062 C 148.617188 252.867188 167.386719 246.886719 187.554688 246.886719 C 190.628906 246.886719 193.675781 247.027344 196.664062 247.300781 C 213.375 248.8125 228.882812 254.433594 242.179688 263.164062 C 254.136719 271.003906 264.304688 281.34375 271.9375 293.433594 C 280.894531 307.621094 286.363281 324.222656 287.167969 342.035156 " fill-opacity="1" fill-rule="nonzero"/><path fill="#fbd5c0" d="M 242.179688 263.164062 C 240.65625 274.675781 235.578125 285.082031 228.066406 293.214844 C 217.996094 304.121094 203.582031 310.960938 187.554688 310.960938 C 161.882812 310.960938 140.3125 293.398438 134.191406 269.632812 C 133.648438 267.523438 133.222656 265.359375 132.929688 263.164062 C 148.617188 252.867188 167.386719 246.886719 187.554688 246.886719 C 190.628906 246.886719 193.675781 247.015625 196.675781 247.300781 C 197.199219 247.34375 197.71875 247.398438 198.230469 247.453125 C 198.558594 247.484375 198.882812 247.515625 199.199219 247.5625 C 199.558594 247.59375 199.917969 247.648438 200.265625 247.691406 C 200.480469 247.714844 200.710938 247.746094 200.925781 247.777344 C 201.242188 247.8125 201.570312 247.867188 201.894531 247.910156 C 202.144531 247.941406 202.394531 247.984375 202.65625 248.015625 C 202.875 248.050781 203.089844 248.082031 203.308594 248.125 C 203.679688 248.179688 204.035156 248.246094 204.40625 248.300781 C 205.992188 248.570312 207.570312 248.875 209.125 249.222656 L 210.167969 249.453125 C 210.363281 249.507812 210.570312 249.550781 210.765625 249.605469 C 211.136719 249.691406 211.515625 249.777344 211.875 249.875 C 211.941406 249.886719 211.996094 249.898438 212.039062 249.910156 C 212.507812 250.027344 212.972656 250.148438 213.429688 250.277344 C 213.929688 250.398438 214.421875 250.539062 214.898438 250.679688 C 215.453125 250.832031 215.996094 250.996094 216.550781 251.160156 C 216.976562 251.289062 217.398438 251.421875 217.824219 251.5625 C 218.09375 251.648438 218.378906 251.734375 218.640625 251.824219 C 219.085938 251.964844 219.53125 252.117188 219.964844 252.269531 C 220.507812 252.453125 221.042969 252.636719 221.574219 252.835938 C 221.617188 252.855469 221.652344 252.867188 221.683594 252.878906 C 222.238281 253.074219 222.78125 253.28125 223.324219 253.488281 C 223.726562 253.648438 224.140625 253.800781 224.554688 253.976562 C 225.628906 254.398438 226.683594 254.84375 227.726562 255.300781 L 229.097656 255.921875 C 229.511719 256.105469 229.925781 256.300781 230.339844 256.5 C 230.71875 256.683594 231.089844 256.855469 231.457031 257.042969 C 231.804688 257.203125 232.144531 257.378906 232.480469 257.554688 C 232.699219 257.660156 232.925781 257.769531 233.144531 257.890625 C 234.046875 258.347656 234.925781 258.824219 235.796875 259.304688 C 236.113281 259.476562 236.4375 259.664062 236.742188 259.835938 C 236.949219 259.957031 237.144531 260.066406 237.339844 260.171875 L 238.078125 260.609375 L 238.828125 261.066406 L 239.320312 261.359375 C 239.785156 261.628906 240.242188 261.914062 240.699219 262.207031 C 241.199219 262.523438 241.6875 262.835938 242.179688 263.164062 " fill-opacity="1" fill-rule="nonzero"/><path fill="#fbd5c0" d="M 206.753906 224.542969 L 206.753906 262.316406 C 206.753906 271.871094 198.9375 279.699219 189.390625 279.699219 L 185.714844 279.699219 C 176.171875 279.699219 168.363281 271.871094 168.363281 262.316406 L 168.363281 224.542969 C 168.363281 214.984375 176.171875 207.167969 185.714844 207.167969 L 189.390625 207.167969 C 198.9375 207.167969 206.753906 214.984375 206.753906 224.542969 " fill-opacity="1" fill-rule="nonzero"/><path fill="#f8a29e" d="M 206.753906 224.542969 L 206.753906 244.527344 C 201.046875 247.703125 194.992188 249.550781 188.847656 249.550781 C 181.59375 249.550781 174.679688 247.527344 168.363281 244.015625 L 168.363281 224.542969 C 168.363281 214.984375 176.171875 207.167969 185.714844 207.167969 L 189.390625 207.167969 C 198.9375 207.167969 206.753906 214.984375 206.753906 224.542969 " fill-opacity="1" fill-rule="nonzero"/><path fill="#fbd5c0" d="M 246.753906 201.125 C 246.753906 201.125 258.128906 197.253906 265.390625 184.574219 C 273.285156 170.808594 268.328125 162.230469 266.761719 160.371094 C 262.488281 155.296875 255.890625 158.558594 254.800781 160.371094 C 253.714844 162.1875 237.96875 190.785156 246.753906 201.125 " fill-opacity="1" fill-rule="nonzero"/><path fill="#f8a29e" d="M 257.898438 164.882812 C 257.898438 164.882812 265.121094 165.808594 262.585938 175.953125 C 260.042969 186.109375 253.378906 190.121094 244.308594 195.304688 C 235.253906 200.492188 248.84375 166.949219 257.898438 164.882812 " fill-opacity="1" fill-rule="nonzero"/><path fill="#fbd5c0" d="M 131.308594 201.125 C 131.308594 201.125 119.9375 197.253906 112.671875 184.574219 C 104.769531 170.808594 109.726562 162.230469 111.292969 160.371094 C 115.566406 155.296875 122.164062 158.558594 123.253906 160.371094 C 124.339844 162.1875 140.09375 190.785156 131.308594 201.125 " fill-opacity="1" fill-rule="nonzero"/><path fill="#f8a29e" d="M 120.152344 164.882812 C 120.152344 164.882812 112.945312 165.808594 115.480469 175.953125 C 118.011719 186.109375 124.6875 190.121094 133.746094 195.304688 C 142.8125 200.492188 129.222656 166.949219 120.152344 164.882812 " fill-opacity="1" fill-rule="nonzero"/><path fill="#fbd5c0" d="M 257.898438 158.1875 C 257.898438 116.511719 227.140625 82.71875 189.183594 82.71875 C 151.238281 82.71875 120.457031 116.511719 120.457031 158.1875 C 120.457031 199.863281 151.238281 243.429688 189.183594 243.429688 C 224.847656 243.429688 257.898438 199.515625 257.898438 158.1875 " fill-opacity="1" fill-rule="nonzero"/><path fill="#23255d" d="M 195.371094 127.753906 C 195.371094 127.753906 208.300781 169.34375 256.921875 165.222656 C 256.921875 165.222656 265.414062 152.945312 262.542969 126.253906 C 259.304688 96.167969 232.652344 70.859375 189.183594 79.914062 C 189.183594 79.914062 185.214844 101.300781 195.371094 127.753906 " fill-opacity="1" fill-rule="nonzero"/><path fill="#23255d" d="M 197.546875 82.71875 C 197.546875 82.71875 199.351562 74.847656 192.828125 68.683594 C 186.304688 62.519531 99.917969 75.175781 120.457031 158.1875 C 120.457031 158.1875 140.59375 108.542969 193.914062 104.191406 L 197.546875 82.71875 " fill-opacity="1" fill-rule="nonzero"/></svg>